<svg xmlns="http://www.w3.org/2000/svg">
    <symbol id="copy" viewBox="0 0 17 16">
        <path fill-rule="evenodd" clip-rule="evenodd" d="M6.49998 1.33333C6.14636 1.33333 5.80722 1.47381 5.55717 1.72386C5.30712 1.97391 5.16665 2.31304 5.16665 2.66667V4H6.49998V2.66667H13.8333V10H12.5V11.3333H13.8333C14.1869 11.3333 14.5261 11.1929 14.7761 10.9428C15.0262 10.6928 15.1666 10.3536 15.1666 10V2.66667C15.1666 2.31304 15.0262 1.97391 14.7761 1.72386C14.5261 1.47381 14.1869 1.33333 13.8333 1.33333H6.49998ZM3.16665 4.66667C2.81302 4.66667 2.47389 4.80714 2.22384 5.05719C1.97379 5.30724 1.83331 5.64638 1.83331 6V13.3333C1.83331 13.687 1.97379 14.0261 2.22384 14.2761C2.47389 14.5262 2.81302 14.6667 3.16665 14.6667H10.5C10.8536 14.6667 11.1927 14.5262 11.4428 14.2761C11.6928 14.0261 11.8333 13.687 11.8333 13.3333V6C11.8333 5.64638 11.6928 5.30724 11.4428 5.05719C11.1927 4.80714 10.8536 4.66667 10.5 4.66667H3.16665ZM3.16665 6H10.5V13.3333H3.16665V6Z" fill="currentColor"/>
        <path d="M6.97327 10.1953C6.84824 10.0702 6.67868 10 6.50186 10H5.16853C4.99172 10 4.82215 10.0702 4.69713 10.1953C4.5721 10.3203 4.50186 10.4899 4.50186 10.6667C4.50186 10.8435 4.5721 11.013 4.69713 11.1381C4.82215 11.2631 4.99172 11.3333 5.16853 11.3333H6.50186C6.67868 11.3333 6.84824 11.2631 6.97327 11.1381C7.09829 11.013 7.16853 10.8435 7.16853 10.6667C7.16853 10.4899 7.09829 10.3203 6.97327 10.1953Z" fill="currentColor"/>
        <path d="M8.29211 7.51523C8.16855 7.39859 8.00512 7.33352 7.8352 7.33333H5.16853L5.09053 7.338C4.9218 7.35807 4.7671 7.44181 4.65804 7.57211C4.54898 7.70241 4.49379 7.86944 4.50375 8.03907C4.51371 8.2087 4.58806 8.36812 4.71162 8.48477C4.83518 8.60141 4.99861 8.66648 5.16853 8.66667H7.8352L7.9132 8.662C8.08193 8.64193 8.23663 8.55819 8.34569 8.42789C8.45475 8.29759 8.50994 8.13056 8.49998 7.96093C8.49002 7.7913 8.41567 7.63188 8.29211 7.51523Z" fill="currentColor"/>
    </symbol>

    <symbol id="delete" viewBox="0 0 17 16">
        <path d="M10.02 1.33333C10.2998 1.3334 10.5726 1.42152 10.7995 1.5852C11.0265 1.74889 11.1962 1.97983 11.2847 2.24533L11.6467 3.33333H13.8333C14.0101 3.33333 14.1797 3.40357 14.3047 3.52859C14.4298 3.65362 14.5 3.82319 14.5 4C14.5 4.17681 14.4298 4.34638 14.3047 4.4714C14.1797 4.59643 14.0101 4.66667 13.8333 4.66667L13.8313 4.714L13.2533 12.8093C13.2173 13.3137 12.9915 13.7858 12.6214 14.1304C12.2513 14.475 11.7644 14.6666 11.2587 14.6667H5.74133C5.23564 14.6666 4.74874 14.475 4.37864 14.1304C4.00855 13.7858 3.78274 13.3137 3.74667 12.8093L3.16867 4.71333C3.16746 4.6978 3.16679 4.68224 3.16667 4.66667C2.98986 4.66667 2.82029 4.59643 2.69526 4.4714C2.57024 4.34638 2.5 4.17681 2.5 4C2.5 3.82319 2.57024 3.65362 2.69526 3.52859C2.82029 3.40357 2.98986 3.33333 3.16667 3.33333H5.35333L5.71533 2.24533C5.8038 1.97972 5.97362 1.7487 6.20073 1.58501C6.42784 1.42132 6.70071 1.33326 6.98067 1.33333H10.02ZM12.498 4.66667H4.502L5.07667 12.714C5.08863 12.8821 5.16385 13.0395 5.28717 13.1544C5.4105 13.2693 5.57277 13.3333 5.74133 13.3333H11.2587C11.4272 13.3333 11.5895 13.2693 11.7128 13.1544C11.8362 13.0395 11.9114 12.8821 11.9233 12.714L12.498 4.66667ZM7.16667 6.66667C7.32996 6.66669 7.48756 6.72664 7.60958 6.83514C7.73161 6.94365 7.80956 7.09317 7.82867 7.25533L7.83333 7.33333V10.6667C7.83314 10.8366 7.76808 11 7.65143 11.1236C7.53479 11.2471 7.37536 11.3215 7.20574 11.3314C7.03611 11.3414 6.86908 11.2862 6.73878 11.1772C6.60848 11.0681 6.52474 10.9134 6.50467 10.7447L6.5 10.6667V7.33333C6.5 7.15652 6.57024 6.98695 6.69526 6.86193C6.82029 6.7369 6.98986 6.66667 7.16667 6.66667ZM9.83333 6.66667C10.0101 6.66667 10.1797 6.7369 10.3047 6.86193C10.4298 6.98695 10.5 7.15652 10.5 7.33333V10.6667C10.5 10.8435 10.4298 11.013 10.3047 11.1381C10.1797 11.2631 10.0101 11.3333 9.83333 11.3333C9.65652 11.3333 9.48695 11.2631 9.36193 11.1381C9.2369 11.013 9.16667 10.8435 9.16667 10.6667V7.33333C9.16667 7.15652 9.2369 6.98695 9.36193 6.86193C9.48695 6.7369 9.65652 6.66667 9.83333 6.66667ZM10.02 2.66667H6.98L6.758 3.33333H10.242L10.02 2.66667Z" fill="currentColor"/>
    </symbol>

    <symbol id="edit" viewBox="0 0 17 16">
        <path d="M8.83335 2C9.00327 2.00019 9.16671 2.06525 9.29027 2.1819C9.41382 2.29855 9.48818 2.45797 9.49814 2.6276C9.50809 2.79722 9.4529 2.96425 9.34384 3.09455C9.23478 3.22486 9.08008 3.3086 8.91135 3.32867L8.83335 3.33333H3.50002V12.6667H12.8334V7.33333C12.8335 7.16341 12.8986 6.99998 13.0153 6.87642C13.1319 6.75286 13.2913 6.67851 13.461 6.66855C13.6306 6.65859 13.7976 6.71378 13.9279 6.82284C14.0582 6.9319 14.142 7.0866 14.162 7.25533L14.1667 7.33333V12.6667C14.1668 13.0031 14.0397 13.327 13.811 13.5737C13.5823 13.8204 13.2688 13.9714 12.9334 13.9967L12.8334 14H3.50002C3.16364 14.0001 2.83964 13.8731 2.59299 13.6443C2.34633 13.4156 2.19525 13.1021 2.17002 12.7667L2.16669 12.6667V3.33333C2.16658 2.99695 2.29362 2.67296 2.52235 2.4263C2.75108 2.17965 3.06458 2.02856 3.40002 2.00333L3.50002 2H8.83335ZM12.9954 2.22867C13.1153 2.1091 13.2763 2.03968 13.4456 2.03451C13.6149 2.02934 13.7798 2.08881 13.9069 2.20083C14.0339 2.31285 14.1136 2.46903 14.1296 2.63765C14.1457 2.80626 14.097 2.97467 13.9934 3.10867L13.938 3.172L7.33802 9.77133C7.21805 9.8909 7.05706 9.96032 6.88776 9.96549C6.71846 9.97066 6.55355 9.91119 6.4265 9.79917C6.29946 9.68715 6.21982 9.53097 6.20375 9.36235C6.18769 9.19374 6.23641 9.02533 6.34002 8.89133L6.39535 8.82867L12.9954 2.22867Z" fill="currentColor"/>
    </symbol>

    <symbol id="export" viewBox="0 0 17 16">
        <path d="M8.83336 10.6667L5.50003 7.33333L6.43336 6.36667L8.1667 8.1V2.66667H9.50003V8.1L11.2334 6.36667L12.1667 7.33333L8.83336 10.6667ZM4.83336 13.3333C4.4667 13.3333 4.15292 13.2029 3.89203 12.942C3.63114 12.6811 3.50047 12.3671 3.50003 12V10H4.83336V12H12.8334V10H14.1667V12C14.1667 12.3667 14.0363 12.6807 13.7754 12.942C13.5145 13.2033 13.2005 13.3338 12.8334 13.3333H4.83336Z" fill="currentColor"/>
    </symbol>

    <symbol id="group" viewBox="0 0 17 16">
        <path fill-rule="evenodd" clip-rule="evenodd" d="M8.00002 8.70588C9.24869 8.70588 10.38 9.16784 11.21 9.81384C11.9987 10.4285 12.6667 11.342 12.6667 12.3248C12.6667 12.8643 12.4607 13.3113 12.136 13.6436C11.8307 13.9573 11.432 14.1607 11.0214 14.2993C10.2007 14.5773 9.12002 14.6667 8.00002 14.6667C6.88002 14.6667 5.79935 14.5773 4.97869 14.2993C4.56802 14.1607 4.16935 13.9573 3.86335 13.6436C3.54002 13.3121 3.33335 12.865 3.33335 12.3256C3.33335 11.3428 4.00135 10.4293 4.79002 9.81459C5.62002 9.16784 6.75135 8.70588 8.00002 8.70588ZM8.00002 10.1961C7.04002 10.1961 6.17135 10.5537 5.55335 11.0358C4.89402 11.5499 4.66669 12.073 4.66669 12.3248C4.66669 12.5513 4.90135 12.6929 5.11469 12.7823L5.25135 12.8345L5.36469 12.8732C5.99135 13.0848 6.91135 13.1765 8.00002 13.1765C9.00535 13.1765 9.86602 13.0982 10.4854 12.9202L10.688 12.8553L10.8147 12.8106C11.0434 12.7235 11.3334 12.5767 11.3334 12.3248C11.3334 12.073 11.106 11.5499 10.4467 11.0358C9.82935 10.5545 8.96002 10.1961 8.00002 10.1961ZM12.6667 9.45098C13.3627 9.45098 13.9947 9.70804 14.462 10.0716C14.8887 10.4047 15.3334 10.9583 15.3334 11.6334C15.3334 12.6281 14.4687 12.9842 13.6914 13.1087L13.4914 13.1362L13.2987 13.1549C13.268 13.1571 13.2374 13.1591 13.2067 13.1608C13.288 12.9038 13.3334 12.6244 13.3334 12.3248C13.3334 12.0976 13.308 11.8763 13.262 11.6632C13.5194 11.6408 13.7307 11.6036 13.888 11.5507C13.9574 11.5268 13.8947 11.4538 13.8214 11.3905L13.75 11.3324L13.6994 11.2944C13.4993 11.1417 13.2736 11.0357 13.036 10.9829C12.7827 10.4166 12.3934 9.92635 11.9787 9.53518C12.2046 9.47928 12.4353 9.45105 12.6667 9.45098ZM3.33335 9.45098C3.57135 9.45098 3.80202 9.48078 4.02135 9.53518C3.60669 9.92635 3.21735 10.4166 2.96402 10.9829C2.70535 11.0418 2.47669 11.1573 2.30069 11.2944L2.21535 11.3599C2.13069 11.4285 2.03135 11.5238 2.11202 11.5507C2.26935 11.6036 2.48069 11.6416 2.73869 11.6632C2.69202 11.8763 2.66669 12.0976 2.66669 12.3248C2.66669 12.6244 2.71202 12.9038 2.79335 13.1608L2.60669 13.1459L2.40935 13.1236C1.60802 13.014 0.666687 12.6713 0.666687 11.6334C0.666687 10.9591 1.11069 10.4047 1.53802 10.0716C2.0666 9.66674 2.69254 9.45035 3.33335 9.45098ZM12.3334 4.98039C12.7754 4.98039 13.1993 5.17665 13.5119 5.52598C13.8244 5.87531 14 6.34911 14 6.84314C14 7.33717 13.8244 7.81096 13.5119 8.1603C13.1993 8.50963 12.7754 8.70588 12.3334 8.70588C11.8913 8.70588 11.4674 8.50963 11.1548 8.1603C10.8423 7.81096 10.6667 7.33717 10.6667 6.84314C10.6667 6.34911 10.8423 5.87531 11.1548 5.52598C11.4674 5.17665 11.8913 4.98039 12.3334 4.98039ZM3.66669 4.98039C4.10871 4.98039 4.53264 5.17665 4.8452 5.52598C5.15776 5.87531 5.33335 6.34911 5.33335 6.84314C5.33335 7.33717 5.15776 7.81096 4.8452 8.1603C4.53264 8.50963 4.10871 8.70588 3.66669 8.70588C3.22466 8.70588 2.80074 8.50963 2.48818 8.1603C2.17561 7.81096 2.00002 7.33717 2.00002 6.84314C2.00002 6.34911 2.17561 5.87531 2.48818 5.52598C2.80074 5.17665 3.22466 4.98039 3.66669 4.98039ZM8.00002 2C8.70726 2 9.38554 2.314 9.88564 2.87294C10.3857 3.43187 10.6667 4.18994 10.6667 4.98039C10.6667 5.77084 10.3857 6.52892 9.88564 7.08785C9.38554 7.64678 8.70726 7.96078 8.00002 7.96078C7.29278 7.96078 6.6145 7.64678 6.1144 7.08785C5.6143 6.52892 5.33335 5.77084 5.33335 4.98039C5.33335 4.18994 5.6143 3.43187 6.1144 2.87294C6.6145 2.314 7.29278 2 8.00002 2ZM12.3334 6.47059C12.2449 6.47059 12.1602 6.50984 12.0977 6.57971C12.0351 6.64957 12 6.74433 12 6.84314C12 6.94194 12.0351 7.0367 12.0977 7.10657C12.1602 7.17644 12.2449 7.21569 12.3334 7.21569C12.4218 7.21569 12.5065 7.17644 12.5691 7.10657C12.6316 7.0367 12.6667 6.94194 12.6667 6.84314C12.6667 6.74433 12.6316 6.64957 12.5691 6.57971C12.5065 6.50984 12.4218 6.47059 12.3334 6.47059ZM3.66669 6.47059C3.57828 6.47059 3.4935 6.50984 3.43098 6.57971C3.36847 6.64957 3.33335 6.74433 3.33335 6.84314C3.33335 6.94194 3.36847 7.0367 3.43098 7.10657C3.4935 7.17644 3.57828 7.21569 3.66669 7.21569C3.75509 7.21569 3.83988 7.17644 3.90239 7.10657C3.9649 7.0367 4.00002 6.94194 4.00002 6.84314C4.00002 6.74433 3.9649 6.64957 3.90239 6.57971C3.83988 6.50984 3.75509 6.47059 3.66669 6.47059ZM8.00002 3.4902C7.6464 3.4902 7.30726 3.6472 7.05721 3.92666C6.80716 4.20613 6.66669 4.58517 6.66669 4.98039C6.66669 5.37562 6.80716 5.75465 7.05721 6.03412C7.30726 6.31359 7.6464 6.47059 8.00002 6.47059C8.35364 6.47059 8.69278 6.31359 8.94283 6.03412C9.19288 5.75465 9.33335 5.37562 9.33335 4.98039C9.33335 4.58517 9.19288 4.20613 8.94283 3.92666C8.69278 3.6472 8.35364 3.4902 8.00002 3.4902Z" fill="currentColor"/>
    </symbol>

    <symbol id="manager" viewBox="0 0 17 16">
        <path fill-rule="evenodd" clip-rule="evenodd" d="M7.23633 2.66683C6.97793 2.66683 6.72206 2.71856 6.48333 2.81907C6.24461 2.91958 6.02769 3.0669 5.84498 3.25262C5.66226 3.43833 5.51732 3.65881 5.41844 3.90146C5.31955 4.14411 5.26866 4.40419 5.26866 4.66683C5.26866 4.92947 5.31955 5.18955 5.41844 5.4322C5.51732 5.67485 5.66226 5.89533 5.84498 6.08104C6.02769 6.26676 6.24461 6.41408 6.48333 6.51459C6.72206 6.6151 6.97793 6.66683 7.23633 6.66683C7.75819 6.66683 8.25867 6.45612 8.62768 6.08104C8.99669 5.70597 9.204 5.19726 9.204 4.66683C9.204 4.1364 8.99669 3.62769 8.62768 3.25262C8.25867 2.87754 7.75819 2.66683 7.23633 2.66683ZM3.95688 4.66683C3.95688 3.78277 4.30239 2.93493 4.91741 2.30981C5.53242 1.68469 6.36656 1.3335 7.23633 1.3335C8.1061 1.3335 8.94024 1.68469 9.55525 2.30981C10.1703 2.93493 10.5158 3.78277 10.5158 4.66683C10.5158 5.55088 10.1703 6.39873 9.55525 7.02385C8.94024 7.64897 8.1061 8.00016 7.23633 8.00016C6.36656 8.00016 5.53242 7.64897 4.91741 7.02385C4.30239 6.39873 3.95688 5.55088 3.95688 4.66683ZM2.91598 11.7342C2.70412 12.0075 2.64509 12.2142 2.64509 12.3335C2.64509 12.4148 2.66936 12.5008 2.81235 12.6175C2.97566 12.7508 3.25966 12.8888 3.69386 13.0055C4.55833 13.2388 5.80059 13.3335 7.23633 13.3335C7.38194 13.3335 7.52558 13.3322 7.66791 13.3302C7.84186 13.3278 8.00962 13.3957 8.13428 13.5191C8.25895 13.6424 8.3303 13.811 8.33265 13.9878C8.335 14.1646 8.26815 14.3352 8.14681 14.4619C8.02546 14.5886 7.85957 14.6611 7.68562 14.6635C7.53738 14.6655 7.38718 14.6668 7.23633 14.6668C5.77435 14.6668 4.39304 14.5735 3.35805 14.2948C2.84317 14.1562 2.35847 13.9575 1.99117 13.6575C1.60223 13.3402 1.33331 12.8968 1.33331 12.3335C1.33331 11.8088 1.56812 11.3182 1.88688 10.9075C2.21089 10.4908 2.65887 10.1075 3.18424 9.78083C4.23563 9.13016 5.66547 8.66683 7.23633 8.66683C7.52951 8.66683 7.8181 8.68283 8.09948 8.7135C8.27248 8.73215 8.4311 8.81989 8.54045 8.95742C8.6498 9.09494 8.70092 9.27099 8.68257 9.44683C8.66422 9.62267 8.57789 9.78389 8.44259 9.89504C8.30729 10.0062 8.13409 10.0581 7.96109 10.0395C7.72497 10.0135 7.48229 10.0002 7.23633 10.0002C5.90946 10.0002 4.71574 10.3935 3.86767 10.9195C3.44331 11.1822 3.12258 11.4675 2.91598 11.7342ZM12.3943 9.3315C12.3365 9.23078 12.2538 9.14722 12.1544 9.08914C12.0549 9.03106 11.9422 9.00049 11.8276 9.00049C11.7129 9.00049 11.6002 9.03106 11.5008 9.08914C11.4013 9.14722 11.3186 9.23078 11.2609 9.3315L10.664 10.3728L9.50571 10.6275C9.39356 10.6522 9.28974 10.7063 9.2046 10.7845C9.11947 10.8627 9.05602 10.9622 9.02057 11.0731C8.98512 11.1841 8.97892 11.3025 9.00259 11.4166C9.02626 11.5307 9.07898 11.6366 9.15547 11.7235L9.94516 12.6222L9.82579 13.8208C9.81422 13.9368 9.83278 14.0539 9.87962 14.1603C9.92647 14.2667 9.99995 14.3588 10.0927 14.4273C10.1855 14.4959 10.2944 14.5385 10.4084 14.5509C10.5225 14.5634 10.6377 14.5452 10.7427 14.4982L11.8276 14.0115L12.9124 14.4982C13.0174 14.5452 13.1326 14.5634 13.2467 14.5509C13.3608 14.5385 13.4696 14.4959 13.5624 14.4273C13.6552 14.3588 13.7287 14.2667 13.7755 14.1603C13.8223 14.0539 13.8409 13.9368 13.8293 13.8208L13.71 12.6215L14.4997 11.7235C14.5762 11.6366 14.6289 11.5307 14.6525 11.4166C14.6762 11.3025 14.67 11.1841 14.6346 11.0731C14.5991 10.9622 14.5357 10.8627 14.4505 10.7845C14.3654 10.7063 14.2616 10.6522 14.1494 10.6275L12.9911 10.3728L12.3943 9.3315ZM11.6524 11.2975L11.8276 10.9908L12.0027 11.2975C12.0486 11.3775 12.1103 11.4469 12.1841 11.5014C12.2578 11.5558 12.3419 11.594 12.431 11.6135L12.772 11.6882L12.5392 11.9528C12.4784 12.0218 12.4325 12.1029 12.4042 12.1909C12.376 12.279 12.3661 12.372 12.3752 12.4642L12.4107 12.8162L12.0919 12.6735C12.0086 12.6362 11.9186 12.617 11.8276 12.617C11.7366 12.617 11.6465 12.6362 11.5632 12.6735L11.2445 12.8162L11.2792 12.4642C11.2883 12.372 11.2785 12.279 11.2502 12.1909C11.222 12.1029 11.176 12.0218 11.1153 11.9528L10.8837 11.6882L11.2248 11.6135C11.3138 11.5939 11.3977 11.5556 11.4713 11.5012C11.545 11.4468 11.6066 11.3774 11.6524 11.2975Z" fill="currentColor"/>
    </symbol>
</svg>
