<svg width="36" height="36" xmlns="http://www.w3.org/2000/svg">
    <symbol viewBox="0 0 36 36" id="home">
        <path fill-rule="evenodd" clip-rule="evenodd" d="M16.158 4.03201C16.6846 3.62235 17.3328 3.39993 18 3.39993C18.6672 3.39993 19.3153 3.62235 19.842 4.03201L32.418 13.812C33.5475 14.6925 32.9235 16.5 31.4955 16.5H30V28.5C30 29.2957 29.6839 30.0587 29.1213 30.6213C28.5587 31.1839 27.7956 31.5 27 31.5H8.99997C8.20432 31.5 7.44126 31.1839 6.87865 30.6213C6.31604 30.0587 5.99997 29.2957 5.99997 28.5V16.5H4.50447C3.07497 16.5 2.45397 14.691 3.58197 13.8135L16.158 4.03201ZM8.43747 13.8375C8.78097 14.115 8.99997 14.5395 8.99997 15.015V28.5H27V15.015C27 14.5395 27.219 14.115 27.5625 13.8375L18 6.40052L8.43747 13.8375Z" fill="currentColor"/>
    </symbol>

    <symbol viewBox="0 0 36 36" id="works">
        <path d="M21.2 6C22.2741 6 23.3043 6.4267 24.0638 7.18622C24.8233 7.94574 25.25 8.97587 25.25 10.05H29.3C30.0161 10.05 30.7028 10.3345 31.2092 10.8408C31.7155 11.3472 32 12.0339 32 12.75V27.6C32 28.3161 31.7155 29.0028 31.2092 29.5092C30.7028 30.0155 30.0161 30.3 29.3 30.3H7.7C6.98392 30.3 6.29716 30.0155 5.79081 29.5092C5.28446 29.0028 5 28.3161 5 27.6V12.75C5 12.0339 5.28446 11.3472 5.79081 10.8408C6.29716 10.3345 6.98392 10.05 7.7 10.05H11.75C11.75 8.97587 12.1767 7.94574 12.9362 7.18622C13.6957 6.4267 14.7259 6 15.8 6H21.2ZM17.15 18.15H7.7V27.6H29.3V18.15H19.85V19.5C19.8496 19.8441 19.7179 20.175 19.4817 20.4252C19.2454 20.6754 18.9226 20.826 18.5791 20.8462C18.2356 20.8663 17.8974 20.7546 17.6335 20.5337C17.3697 20.3129 17.2001 19.9996 17.1595 19.6579L17.15 19.5V18.15ZM29.3 12.75H7.7V15.45H29.3V12.75ZM21.2 8.7H15.8C15.4693 8.70004 15.1502 8.82144 14.9031 9.04116C14.656 9.26089 14.4981 9.56366 14.4595 9.89205L14.45 10.05H22.55C22.55 9.71934 22.4286 9.40019 22.2088 9.1531C21.9891 8.906 21.6863 8.74814 21.358 8.70945L21.2 8.7Z" fill="currentColor"/>
    </symbol>

    <symbol viewBox="0 0 36 36" id="academic">
        <path d="M18.5 31.5L8 25.8V16.8L2 13.5L18.5 4.5L35 13.5V25.5H32V15.15L29 16.8V25.8L18.5 31.5ZM18.5 19.05L28.775 13.5L18.5 7.95L8.225 13.5L18.5 19.05ZM18.5 28.0875L26 24.0375V18.375L18.5 22.5L11 18.375V24.0375L18.5 28.0875Z" fill="currentColor"/>
    </symbol>

    <symbol viewBox="0 0 36 36" id="qualification">
        <path d="M27 13.5C28.1548 13.4999 29.285 13.8331 30.2551 14.4595C31.2252 15.0859 31.9939 15.979 32.469 17.0314C32.9441 18.0839 33.1054 19.2512 32.9335 20.3931C32.7616 21.535 32.2639 22.603 31.5 23.469V29.757C31.5 30.0383 31.4282 30.3149 31.2912 30.5606C31.1543 30.8063 30.9568 31.0129 30.7175 31.1608C30.4782 31.3087 30.2051 31.3929 29.9241 31.4056C29.6431 31.4182 29.3636 31.3588 29.112 31.233L27 30.177L24.888 31.233C24.6364 31.3588 24.3569 31.4182 24.0759 31.4056C23.7949 31.3929 23.5218 31.3087 23.2825 31.1608C23.0432 31.0129 22.8457 30.8063 22.7088 30.5606C22.5718 30.3149 22.5 30.0383 22.5 29.757V23.469C21.7361 22.603 21.2384 21.535 21.0665 20.3931C20.8946 19.2512 21.0559 18.0839 21.531 17.0314C22.0061 15.979 22.7748 15.0859 23.7449 14.4595C24.715 13.8331 25.8452 13.4999 27 13.5ZM30 4.5C30.7956 4.5 31.5587 4.81607 32.1213 5.37868C32.6839 5.94129 33 6.70435 33 7.5V10.5C33 10.8978 32.842 11.2794 32.5607 11.5607C32.2794 11.842 31.8978 12 31.5 12C31.1022 12 30.7206 11.842 30.4393 11.5607C30.158 11.2794 30 10.8978 30 10.5V7.5H6V25.5H18C18.3978 25.5 18.7794 25.658 19.0607 25.9393C19.342 26.2206 19.5 26.6022 19.5 27C19.5 27.3978 19.342 27.7794 19.0607 28.0607C18.7794 28.342 18.3978 28.5 18 28.5H6C5.20435 28.5 4.44129 28.1839 3.87868 27.6213C3.31607 27.0587 3 26.2956 3 25.5V7.5C3 6.70435 3.31607 5.94129 3.87868 5.37868C4.44129 4.81607 5.20435 4.5 6 4.5H30ZM28.5 25.311C27.5161 25.5644 26.4839 25.5644 25.5 25.311V27.573L26.3295 27.159C26.5377 27.055 26.7673 27.0008 27 27.0008C27.2327 27.0008 27.4623 27.055 27.6705 27.159L28.5 27.573V25.311ZM27 16.5C26.2044 16.5 25.4413 16.8161 24.8787 17.3787C24.3161 17.9413 24 18.7044 24 19.5C24 20.2956 24.3161 21.0587 24.8787 21.6213C25.4413 22.1839 26.2044 22.5 27 22.5C27.7956 22.5 28.5587 22.1839 29.1213 21.6213C29.6839 21.0587 30 20.2956 30 19.5C30 18.7044 29.6839 17.9413 29.1213 17.3787C28.5587 16.8161 27.7956 16.5 27 16.5ZM13.5 18C13.8823 18.0004 14.25 18.1468 14.5281 18.4093C14.8061 18.6717 14.9734 19.0304 14.9958 19.4121C15.0182 19.7938 14.894 20.1696 14.6486 20.4627C14.4032 20.7559 14.0551 20.9443 13.6755 20.9895L13.5 21H10.5C10.1177 20.9996 9.74995 20.8532 9.47195 20.5907C9.19394 20.3283 9.02665 19.9696 9.00424 19.5879C8.98184 19.2062 9.10601 18.8304 9.3514 18.5373C9.59678 18.2441 9.94486 18.0557 10.3245 18.0105L10.5 18H13.5ZM19.5 12C19.8978 12 20.2794 12.158 20.5607 12.4393C20.842 12.7206 21 13.1022 21 13.5C21 13.8978 20.842 14.2794 20.5607 14.5607C20.2794 14.842 19.8978 15 19.5 15H10.5C10.1022 15 9.72064 14.842 9.43934 14.5607C9.15804 14.2794 9 13.8978 9 13.5C9 13.1022 9.15804 12.7206 9.43934 12.4393C9.72064 12.158 10.1022 12 10.5 12H19.5Z" fill="currentColor"/>
    </symbol>

    <symbol viewBox="0 0 36 36" id="user">
        <path fill-rule="evenodd" clip-rule="evenodd" d="M18.5 19.5C22.094 19.5 25.3625 20.541 27.767 22.008C28.967 22.74 29.993 23.604 30.734 24.543C31.463 25.4655 32 26.5695 32 27.75C32 29.0175 31.3835 30.0165 30.4955 30.729C29.6555 31.404 28.547 31.851 27.3695 32.163C25.0025 32.7885 21.8435 33 18.5 33C15.1565 33 11.9975 32.79 9.6305 32.163C8.453 31.851 7.3445 31.404 6.5045 30.729C5.615 30.015 5 29.0175 5 27.75C5 26.5695 5.537 25.4655 6.266 24.5415C7.007 23.604 8.0315 22.7415 9.233 22.0065C11.6375 20.5425 14.9075 19.5 18.5 19.5ZM18.5 22.5C15.4655 22.5 12.7355 23.385 10.796 24.5685C9.8255 25.1595 9.0935 25.8015 8.621 26.4015C8.135 27.0165 8 27.4815 8 27.75C8 27.933 8.0555 28.1265 8.3825 28.389C8.756 28.689 9.4055 28.9995 10.3985 29.262C12.3755 29.787 15.2165 30 18.5 30C21.785 30 24.6245 29.7855 26.6 29.262C27.5945 28.9995 28.244 28.689 28.6175 28.389C28.9445 28.1265 29 27.933 29 27.75C29 27.48 28.865 27.0165 28.3805 26.4015C27.9065 25.8015 27.1745 25.1595 26.204 24.5685C24.2645 23.3835 21.5345 22.5 18.5 22.5ZM18.5 3C20.4891 3 22.3968 3.79018 23.8033 5.1967C25.2098 6.60322 26 8.51088 26 10.5C26 12.4891 25.2098 14.3968 23.8033 15.8033C22.3968 17.2098 20.4891 18 18.5 18C16.5109 18 14.6032 17.2098 13.1967 15.8033C11.7902 14.3968 11 12.4891 11 10.5C11 8.51088 11.7902 6.60322 13.1967 5.1967C14.6032 3.79018 16.5109 3 18.5 3ZM18.5 6C17.909 6 17.3239 6.1164 16.7779 6.34254C16.232 6.56869 15.7359 6.90016 15.318 7.31802C14.9002 7.73588 14.5687 8.23196 14.3425 8.77792C14.1164 9.32389 14 9.90905 14 10.5C14 11.0909 14.1164 11.6761 14.3425 12.2221C14.5687 12.768 14.9002 13.2641 15.318 13.682C15.7359 14.0998 16.232 14.4313 16.7779 14.6575C17.3239 14.8836 17.909 15 18.5 15C19.6935 15 20.8381 14.5259 21.682 13.682C22.5259 12.8381 23 11.6935 23 10.5C23 9.30653 22.5259 8.16193 21.682 7.31802C20.8381 6.47411 19.6935 6 18.5 6Z" fill="currentColor"/>
    </symbol>
</svg>
