<svg width="120" height="160" viewBox="0 0 120 160" fill="none" xmlns="http://www.w3.org/2000/svg">
<path d="M65.808 49.542H60.544V54.806H59.44V49.542H54.176V48.454H59.44V43.19H60.544V48.454H65.808V49.542Z" fill="#222222"/>
<path d="M24.6282 71.148H30.5482V71.798H24.6282V71.148ZM24.9082 69.528H30.3282V70.148H24.9082V69.528ZM26.0882 68.608H26.8082V71.548H26.0882V68.608ZM27.2082 71.568H27.9082V75.648H27.2082V71.568ZM28.3982 68.608H29.1082V71.578H28.3982V68.608ZM25.7282 74.478V75.348H29.4782V74.478H25.7282ZM25.7282 73.088V73.948H29.4782V73.088H25.7282ZM25.0682 72.528H30.1682V75.908H25.0682V72.528ZM26.3882 76.118L27.0382 76.528C26.4782 77.008 25.5782 77.518 24.8482 77.808C24.7382 77.668 24.5082 77.438 24.3482 77.298C25.0782 77.018 25.9582 76.528 26.3882 76.118ZM21.4582 70.748H24.7382V71.458H21.4582V70.748ZM22.8582 68.598H23.5582V77.788H22.8582V68.598ZM22.8382 71.188L23.2982 71.348C22.9882 72.938 22.3182 74.908 21.5882 75.908C21.5082 75.708 21.3382 75.428 21.2082 75.258C21.8782 74.358 22.5582 72.618 22.8382 71.188ZM23.4982 72.138C23.7282 72.398 24.5882 73.638 24.7682 73.928L24.3482 74.508C24.1282 74.018 23.4282 72.848 23.1782 72.458L23.4982 72.138ZM28.1782 76.568L28.7182 76.158C29.3582 76.488 30.2182 76.998 30.6582 77.348L30.0882 77.818C29.6782 77.468 28.8382 76.928 28.1782 76.568ZM32.7949 75.1279V75.0791H33.7471V75.1279C33.7471 75.5088 33.8822 75.805 34.1523 76.0166C34.4258 76.2249 34.7871 76.3291 35.2363 76.3291C35.6855 76.3291 36.0436 76.2249 36.3105 76.0166C36.5775 75.805 36.7109 75.4762 36.7109 75.0303C36.7109 74.5876 36.5596 74.2539 36.2568 74.0293C35.9574 73.8047 35.5537 73.6924 35.0459 73.6924H34.4404V72.8965H34.9922C35.4609 72.8965 35.8223 72.7907 36.0762 72.5791C36.3333 72.3643 36.4619 72.068 36.4619 71.6904C36.4619 71.3096 36.3512 71.0264 36.1299 70.8408C35.9085 70.652 35.6107 70.5576 35.2363 70.5576C34.8555 70.5576 34.5446 70.652 34.3037 70.8408C34.0661 71.0264 33.9473 71.2933 33.9473 71.6416V71.6904H32.9951V71.6416C32.9951 71.1175 33.2035 70.6699 33.6201 70.2988C34.04 69.9277 34.5788 69.7422 35.2363 69.7422C35.8841 69.7422 36.4131 69.9196 36.8232 70.2744C37.2367 70.626 37.4434 71.0785 37.4434 71.6318C37.4434 71.9574 37.3506 72.2682 37.165 72.5645C36.9827 72.8607 36.6963 73.0918 36.3057 73.2578V73.2773C36.7288 73.3815 37.0674 73.5882 37.3213 73.8975C37.5785 74.2035 37.707 74.5827 37.707 75.0352C37.707 75.6895 37.4727 76.2054 37.0039 76.583C36.5384 76.9574 35.9492 77.1445 35.2363 77.1445C34.5072 77.1445 33.918 76.9557 33.4688 76.5781C33.0195 76.2005 32.7949 75.7171 32.7949 75.1279ZM40.1348 74.4443V74.2881C40.1348 73.4971 40.3577 72.8509 40.8037 72.3496C41.2497 71.8451 41.8617 71.5928 42.6396 71.5928C43.3623 71.5928 43.9108 71.7816 44.2852 72.1592C44.6628 72.5368 44.8516 72.9583 44.8516 73.4238V73.4482H43.9287V73.4238C43.9287 73.1471 43.8262 72.9046 43.6211 72.6963C43.4193 72.4847 43.0921 72.3789 42.6396 72.3789C42.1123 72.3789 41.7249 72.5645 41.4775 72.9355C41.2301 73.3034 41.1064 73.7542 41.1064 74.2881V74.4443C41.1064 74.9814 41.2301 75.4355 41.4775 75.8066C41.7249 76.1745 42.1123 76.3584 42.6396 76.3584C43.0921 76.3584 43.4193 76.2542 43.6211 76.0459C43.8262 75.8343 43.9287 75.5918 43.9287 75.3184V75.2939H44.8516V75.3184C44.8516 75.7806 44.6628 76.2005 44.2852 76.5781C43.9108 76.9557 43.3623 77.1445 42.6396 77.1445C41.8617 77.1445 41.2497 76.8939 40.8037 76.3926C40.3577 75.888 40.1348 75.2386 40.1348 74.4443ZM47.4307 76.998V71.7393H48.29L48.334 72.4277H48.3584C48.557 72.1836 48.793 71.9915 49.0664 71.8516C49.3431 71.7116 49.6491 71.6416 49.9844 71.6416C50.349 71.6416 50.6631 71.7132 50.9268 71.8564C51.1937 71.9997 51.3955 72.2275 51.5322 72.54H51.5566C51.7878 72.221 52.0433 71.9915 52.3232 71.8516C52.6064 71.7116 52.9287 71.6416 53.29 71.6416C53.8532 71.6416 54.2926 71.7979 54.6084 72.1104C54.9274 72.4196 55.0869 72.9355 55.0869 73.6582V76.998H54.1396V73.6484C54.1364 73.2188 54.0404 72.9128 53.8516 72.7305C53.666 72.5449 53.4007 72.4521 53.0557 72.4521C52.7562 72.4521 52.4941 72.5335 52.2695 72.6963C52.0482 72.8558 51.8691 73.0641 51.7324 73.3213V76.998H50.7852V73.6484C50.7852 73.2188 50.6908 72.9128 50.502 72.7305C50.3132 72.5449 50.0446 72.4521 49.6963 72.4521C49.3968 72.4521 49.1348 72.5335 48.9102 72.6963C48.6888 72.8558 48.5114 73.0641 48.3779 73.3213V76.998H47.4307ZM58.3594 75.9727L57.7979 75.3916L61.6113 71.4902L62.1729 72.0762L58.3594 75.9727ZM61.582 75.9629L57.8223 72.1201L58.418 71.5L62.1777 75.3428L61.582 75.9629ZM71.6193 71.368H72.2693V77.108H71.6193V71.368ZM70.2593 68.878L70.8493 68.688C71.1793 69.308 71.4493 70.148 71.5393 70.698L70.8993 70.908C70.8293 70.358 70.5593 69.518 70.2593 68.878ZM70.7393 74.588C71.1493 76.668 72.0493 77.028 73.0093 77.028C73.1693 77.028 73.7393 77.028 73.9493 77.028C73.8593 77.188 73.7693 77.508 73.7393 77.688H72.9593C71.7293 77.688 70.7393 77.208 70.2393 74.778L70.7393 74.588ZM71.9193 73.588H73.7093V74.248H71.9193V73.588ZM69.9793 70.988H73.8093V71.658H69.9793V70.988ZM72.7793 68.608L73.5193 68.768C73.2893 69.488 73.0093 70.338 72.7693 70.878L72.1593 70.728C72.3893 70.158 72.6593 69.248 72.7793 68.608ZM70.1893 73.008H70.7793V73.878C70.7793 75.038 70.6893 76.568 69.8393 77.818C69.7293 77.678 69.4893 77.498 69.3093 77.388C70.0993 76.248 70.1893 74.848 70.1893 73.868V73.008ZM69.0093 68.628L69.6393 68.818C69.2393 69.638 68.6593 70.538 68.1093 71.108C68.0093 70.998 67.7593 70.748 67.6093 70.638C68.1493 70.118 68.6693 69.358 69.0093 68.628ZM69.2693 70.658L69.8793 70.828C69.4693 71.828 68.7993 72.838 68.1293 73.498C68.0493 73.368 67.8393 73.078 67.7093 72.948C68.3293 72.378 68.9193 71.528 69.2693 70.658ZM65.9993 68.608L66.6693 68.838C66.3293 69.568 65.9093 70.458 65.5793 71.018L65.0693 70.808C65.3893 70.228 65.7893 69.268 65.9993 68.608ZM67.0493 69.778L67.6793 70.058C67.0393 71.158 66.1593 72.578 65.4593 73.438L65.0093 73.188C65.6893 72.308 66.5693 70.828 67.0493 69.778ZM64.6093 70.658L64.9593 70.148C65.4893 70.618 66.0893 71.278 66.3193 71.718L65.9493 72.318C65.6993 71.848 65.1193 71.148 64.6093 70.658ZM66.6293 72.068L67.1693 71.858C67.5593 72.488 67.9393 73.308 68.0593 73.848L67.4893 74.088C67.3693 73.558 66.9993 72.708 66.6293 72.068ZM64.5193 73.028C65.3193 73.018 66.4393 72.998 67.5693 72.978L67.5493 73.538C66.5293 73.608 65.5093 73.668 64.6693 73.708L64.5193 73.028ZM66.9393 74.458L67.4793 74.308C67.7393 74.928 67.9793 75.738 68.0693 76.268L67.4993 76.448C67.4193 75.908 67.1893 75.088 66.9393 74.458ZM65.0193 74.318L65.6293 74.428C65.5093 75.368 65.2993 76.338 65.0093 76.968C64.8793 76.888 64.5993 76.758 64.4493 76.698C64.7493 76.088 64.9193 75.188 65.0193 74.318ZM65.9993 73.318H66.6493V77.798H65.9993V73.318ZM68.5893 72.278L69.1393 71.728L69.2393 71.768V77.798H68.5893V72.278ZM79.3721 76.998V75.0547V74.8008V71.3438H79.3135L77.0674 74.5225H79.6064H79.9922H81.3203V75.3379H75.9492V74.6592L79.3965 69.8887H80.2998V76.998H79.3721ZM83.4258 74.4443V74.2881C83.4258 73.4971 83.6488 72.8509 84.0947 72.3496C84.5407 71.8451 85.1527 71.5928 85.9307 71.5928C86.6533 71.5928 87.2018 71.7816 87.5762 72.1592C87.9538 72.5368 88.1426 72.9583 88.1426 73.4238V73.4482H87.2197V73.4238C87.2197 73.1471 87.1172 72.9046 86.9121 72.6963C86.7103 72.4847 86.3831 72.3789 85.9307 72.3789C85.4033 72.3789 85.016 72.5645 84.7686 72.9355C84.5212 73.3034 84.3975 73.7542 84.3975 74.2881V74.4443C84.3975 74.9814 84.5212 75.4355 84.7686 75.8066C85.016 76.1745 85.4033 76.3584 85.9307 76.3584C86.3831 76.3584 86.7103 76.2542 86.9121 76.0459C87.1172 75.8343 87.2197 75.5918 87.2197 75.3184V75.2939H88.1426V75.3184C88.1426 75.7806 87.9538 76.2005 87.5762 76.5781C87.2018 76.9557 86.6533 77.1445 85.9307 77.1445C85.1527 77.1445 84.5407 76.8939 84.0947 76.3926C83.6488 75.888 83.4258 75.2386 83.4258 74.4443ZM90.7217 76.998V71.7393H91.5811L91.625 72.4277H91.6494C91.848 72.1836 92.084 71.9915 92.3574 71.8516C92.6341 71.7116 92.9401 71.6416 93.2754 71.6416C93.64 71.6416 93.9541 71.7132 94.2178 71.8564C94.4847 71.9997 94.6865 72.2275 94.8232 72.54H94.8477C95.0788 72.221 95.3343 71.9915 95.6143 71.8516C95.8975 71.7116 96.2197 71.6416 96.5811 71.6416C97.1442 71.6416 97.5837 71.7979 97.8994 72.1104C98.2184 72.4196 98.3779 72.9355 98.3779 73.6582V76.998H97.4307V73.6484C97.4274 73.2188 97.3314 72.9128 97.1426 72.7305C96.957 72.5449 96.6917 72.4521 96.3467 72.4521C96.0472 72.4521 95.7852 72.5335 95.5605 72.6963C95.3392 72.8558 95.1602 73.0641 95.0234 73.3213V76.998H94.0762V73.6484C94.0762 73.2188 93.9818 72.9128 93.793 72.7305C93.6042 72.5449 93.3356 72.4521 92.9873 72.4521C92.6878 72.4521 92.4258 72.5335 92.2012 72.6963C91.9798 72.8558 91.8024 73.0641 91.6689 73.3213V76.998H90.7217ZM17.2109 93.1279V93.0791H18.1631V93.1279C18.1631 93.5088 18.2982 93.805 18.5684 94.0166C18.8418 94.2249 19.2031 94.3291 19.6523 94.3291C20.1016 94.3291 20.4596 94.2249 20.7266 94.0166C20.9935 93.805 21.127 93.4762 21.127 93.0303C21.127 92.5876 20.9756 92.2539 20.6729 92.0293C20.3734 91.8047 19.9697 91.6924 19.4619 91.6924H18.8564V90.8965H19.4082C19.877 90.8965 20.2383 90.7907 20.4922 90.5791C20.7493 90.3643 20.8779 90.068 20.8779 89.6904C20.8779 89.3096 20.7673 89.0264 20.5459 88.8408C20.3245 88.652 20.0267 88.5576 19.6523 88.5576C19.2715 88.5576 18.9606 88.652 18.7197 88.8408C18.4821 89.0264 18.3633 89.2933 18.3633 89.6416V89.6904H17.4111V89.6416C17.4111 89.1175 17.6195 88.6699 18.0361 88.2988C18.4561 87.9277 18.9948 87.7422 19.6523 87.7422C20.3001 87.7422 20.8291 87.9196 21.2393 88.2744C21.6527 88.626 21.8594 89.0785 21.8594 89.6318C21.8594 89.9574 21.7666 90.2682 21.5811 90.5645C21.3988 90.8607 21.1123 91.0918 20.7217 91.2578V91.2773C21.1449 91.3815 21.4834 91.5882 21.7373 91.8975C21.9945 92.2035 22.123 92.5827 22.123 93.0352C22.123 93.6895 21.8887 94.2054 21.4199 94.583C20.9544 94.9574 20.3652 95.1445 19.6523 95.1445C18.9232 95.1445 18.334 94.9557 17.8848 94.5781C17.4355 94.2005 17.2109 93.7171 17.2109 93.1279ZM29.2057 87.138C29.1857 87.368 29.1657 87.708 29.1557 87.948C29.0257 92.028 27.9257 93.898 25.9557 95.268L25.2257 94.678C25.5457 94.508 25.9457 94.228 26.2457 93.948C27.4957 92.818 28.3157 91.128 28.3357 87.968C28.3357 87.738 28.3157 87.368 28.2757 87.138H29.2057ZM32.6857 89.218C32.6557 89.388 32.6357 89.568 32.6257 89.698C32.5957 90.668 32.4657 93.568 32.0157 94.528C31.8157 94.958 31.4957 95.138 30.9457 95.138C30.4457 95.138 29.8657 95.108 29.3457 95.068L29.2457 94.238C29.7857 94.308 30.3057 94.358 30.7357 94.358C31.0157 94.358 31.2057 94.268 31.3157 94.028C31.6957 93.258 31.8257 90.798 31.8257 89.728H26.5557C26.1557 89.728 25.7557 89.738 25.3957 89.768V88.928C25.7457 88.958 26.1557 88.978 26.5457 88.978H31.4857C31.7557 88.978 31.9457 88.958 32.1157 88.928L32.6857 89.218ZM38.1657 87.128H43.3857V87.858H38.1657V87.128ZM38.1657 89.538H43.4257V90.258H38.1657V89.538ZM38.0857 91.958H43.3757V92.678H38.0857V91.958ZM37.7057 87.128H38.4657V90.218C38.4657 91.948 38.2157 94.308 36.4957 95.808C36.3857 95.648 36.0857 95.378 35.9257 95.268C37.5357 93.858 37.7057 91.828 37.7057 90.218V87.128ZM43.0557 87.128H43.8357V94.698C43.8357 95.228 43.6957 95.488 43.3157 95.618C42.9257 95.748 42.2657 95.758 41.1857 95.758C41.1357 95.538 40.9957 95.178 40.8657 94.968C41.6957 94.998 42.5157 94.988 42.7457 94.988C42.9757 94.978 43.0557 94.908 43.0557 94.688V87.128ZM50.7757 88.178L51.4457 87.848C52.1157 88.578 52.7557 89.568 53.0457 90.248L52.3257 90.638C52.0657 89.948 51.4157 88.918 50.7757 88.178ZM47.4857 93.938C48.5057 93.538 50.1057 92.858 51.6057 92.198L51.7757 92.928C50.3857 93.568 48.8657 94.238 47.7557 94.718L47.4857 93.938ZM53.4857 92.618L54.0657 92.128C55.0157 93.068 56.2557 94.368 56.8457 95.188L56.2057 95.778C55.6457 94.948 54.4457 93.598 53.4857 92.618ZM54.8757 87.118L55.6857 87.198C55.1757 91.818 54.0057 94.368 50.5057 95.828C50.3957 95.668 50.0957 95.338 49.9057 95.178C53.3657 93.918 54.4257 91.468 54.8757 87.118ZM48.7057 87.148L49.4757 87.118L49.6457 93.728L48.8757 93.758L48.7057 87.148ZM63.1457 90.658L63.7057 90.258C64.7257 91.138 66.0257 92.388 66.6657 93.168L66.0457 93.648C65.4457 92.858 64.1657 91.578 63.1457 90.658ZM63.2557 86.598H64.0257V88.558C64.0257 90.158 63.7357 92.268 61.1557 93.778C61.0557 93.618 60.7957 93.348 60.6257 93.218C63.1257 91.868 63.2557 89.938 63.2557 88.558V86.598ZM59.6157 88.308H67.2657V89.048H60.3657V95.818H59.6157V88.308ZM66.9257 88.308H67.6657V94.808C67.6657 95.298 67.5457 95.538 67.2057 95.668C66.8557 95.788 66.2357 95.798 65.3357 95.798C65.3057 95.588 65.1857 95.238 65.0857 95.028C65.7957 95.058 66.4757 95.058 66.6757 95.048C66.8657 95.038 66.9257 94.978 66.9257 94.808V88.308ZM74.6857 88.248C75.7757 88.438 77.8057 88.398 78.7957 88.248V89.058C77.7257 89.178 75.7857 89.178 74.6957 89.058L74.6857 88.248ZM75.0757 92.328C74.9857 92.688 74.9357 92.968 74.9357 93.238C74.9357 93.698 75.2557 94.148 76.6257 94.148C77.5157 94.148 78.2957 94.068 79.0957 93.878L79.1157 94.718C78.4957 94.848 77.6557 94.928 76.6157 94.928C74.9457 94.928 74.1957 94.368 74.1957 93.428C74.1957 93.098 74.2457 92.738 74.3557 92.258L75.0757 92.328ZM72.7857 87.478C72.7257 87.648 72.6457 87.968 72.6057 88.148C72.4157 89.078 72.1057 90.858 72.1057 91.988C72.1057 92.468 72.1357 92.888 72.1957 93.378C72.3657 92.928 72.5957 92.328 72.7657 91.918L73.1857 92.248C72.9357 92.958 72.5657 94.008 72.4757 94.488C72.4457 94.628 72.4257 94.818 72.4257 94.938C72.4357 95.038 72.4457 95.178 72.4557 95.288L71.7457 95.338C71.5457 94.628 71.3757 93.478 71.3757 92.118C71.3757 90.648 71.7057 88.938 71.8257 88.108C71.8557 87.878 71.8857 87.628 71.8957 87.408L72.7857 87.478ZM84.8157 90.458H91.2757V91.058H84.8157V90.458ZM85.7257 91.788H87.6557V92.328H85.7257V91.788ZM88.1457 91.678H90.5857V92.278H88.1457V91.678ZM85.7257 93.038H87.6557V93.578H85.7257V93.038ZM86.4357 88.658V89.368H89.8257V88.658H86.4357ZM86.4357 87.448V88.148H89.8257V87.448H86.4357ZM85.7457 86.918H90.5457V89.898H85.7457V86.918ZM85.4557 90.718H86.0857V94.718H85.4557V90.718ZM87.2957 90.698H87.9357V95.828H87.2957V90.698ZM84.6257 94.628C85.3657 94.528 86.4857 94.358 87.6157 94.178L87.6557 94.768C86.6557 94.938 85.6157 95.128 84.8157 95.268L84.6257 94.628ZM90.3357 91.678H90.4557L90.5857 91.658L90.9857 91.758C90.6357 93.858 89.6857 95.148 88.3557 95.808C88.2857 95.648 88.1157 95.408 87.9757 95.278C89.1457 94.748 90.0357 93.538 90.3357 91.788V91.678ZM88.9157 92.378C89.3357 93.688 90.1957 94.788 91.3657 95.288C91.2157 95.408 91.0257 95.648 90.9257 95.818C89.7157 95.218 88.8157 93.998 88.3657 92.518L88.9157 92.378ZM81.9057 91.768C82.6557 91.558 83.7757 91.208 84.8757 90.858L84.9757 91.538C83.9757 91.888 82.9157 92.238 82.0957 92.498L81.9057 91.768ZM82.0457 88.618H84.8757V89.318H82.0457V88.618ZM83.2757 86.608H83.9557V94.948C83.9557 95.348 83.8657 95.548 83.6157 95.668C83.3857 95.788 82.9957 95.808 82.3757 95.808C82.3457 95.628 82.2557 95.318 82.1557 95.118C82.5957 95.128 82.9757 95.128 83.0957 95.128C83.2157 95.128 83.2757 95.088 83.2757 94.948V86.608ZM93.5857 90.258H99.2857V90.858H93.5857V90.258ZM96.1057 89.548H96.7957V90.588H96.1057V89.548ZM95.0157 91.978V92.908H97.9457V91.978H95.0157ZM94.3557 91.448H98.6357V93.438H94.3557V91.448ZM94.9457 88.538V89.158H98.0057V88.538H94.9457ZM94.9457 87.458V88.078H98.0057V87.458H94.9457ZM94.2657 86.978H98.7057V89.638H94.2657V86.978ZM96.1057 93.068H96.7957V95.088C96.7957 95.428 96.7257 95.598 96.4657 95.698C96.2057 95.798 95.8357 95.798 95.2757 95.798C95.2357 95.618 95.1057 95.378 94.9957 95.198C95.4557 95.218 95.8257 95.218 95.9557 95.208C96.0757 95.208 96.1057 95.178 96.1057 95.078V93.068ZM94.6557 93.688L95.3057 93.858C95.0157 94.478 94.5457 95.108 94.0957 95.518C93.9757 95.408 93.7057 95.228 93.5457 95.128C93.9957 94.758 94.4157 94.228 94.6557 93.688ZM97.4257 93.988L97.9957 93.698C98.3857 94.118 98.8457 94.688 99.0657 95.058L98.4757 95.378C98.2657 95.008 97.8157 94.418 97.4257 93.988ZM101.596 86.778L102.306 87.068C101.636 87.948 100.596 88.818 99.6757 89.358C99.5457 89.198 99.3157 88.968 99.1357 88.828C100.006 88.368 101.036 87.548 101.596 86.778ZM101.866 89.548L102.566 89.838C101.846 90.768 100.716 91.668 99.7257 92.238C99.5957 92.078 99.3657 91.848 99.1757 91.708C100.126 91.218 101.246 90.358 101.866 89.548ZM102.126 92.378L102.856 92.638C102.076 93.978 100.756 95.108 99.3057 95.788C99.1857 95.608 98.9657 95.348 98.7757 95.188C100.136 94.598 101.446 93.558 102.126 92.378ZM41.15 105.208C41.1 105.538 41.07 105.888 41.05 106.218C41.01 107.348 40.93 109.718 40.93 111.208C40.93 112.308 41.62 112.688 42.57 112.688C44.4 112.688 45.44 111.668 46.16 110.628L46.72 111.308C46.04 112.258 44.74 113.508 42.55 113.508C41.11 113.508 40.12 112.918 40.12 111.278C40.12 109.798 40.22 107.268 40.22 106.218C40.22 105.848 40.19 105.498 40.13 105.208H41.15ZM53.67 105.138C53.61 105.358 53.54 105.738 53.5 105.928C53.35 106.648 53.14 107.778 52.86 108.778C52.5 110.198 51.83 112.268 51.3 113.358L50.43 113.068C51.03 112.028 51.73 109.998 52.11 108.588C52.35 107.668 52.61 106.408 52.68 105.888C52.72 105.608 52.74 105.268 52.72 105.058L53.67 105.138ZM51.46 106.808C52.56 106.808 54.03 106.628 55.27 106.318V107.098C54.03 107.378 52.52 107.548 51.44 107.548C51 107.548 50.65 107.538 50.28 107.508L50.26 106.728C50.73 106.788 51.09 106.808 51.46 106.808ZM54.62 108.178C55.14 108.128 55.81 108.098 56.45 108.098C57.03 108.098 57.64 108.118 58.18 108.178L58.16 108.938C57.64 108.878 57.06 108.818 56.47 108.818C55.85 108.818 55.23 108.858 54.62 108.928V108.178ZM54.82 110.608C54.74 110.938 54.68 111.248 54.68 111.508C54.68 111.978 54.95 112.438 56.37 112.438C57.03 112.438 57.71 112.368 58.33 112.248L58.3 113.048C57.76 113.128 57.09 113.188 56.36 113.188C54.79 113.188 53.93 112.708 53.93 111.718C53.93 111.338 53.99 110.958 54.08 110.538L54.82 110.608ZM65.17 105.138C65.11 105.408 65.08 105.618 65.04 105.838C64.91 106.958 64.46 110.038 64.46 111.118C64.46 112.088 65.01 112.678 66.15 112.678C67.67 112.678 68.64 112.018 68.64 110.978C68.64 110.308 68.28 109.568 67.54 108.948L68.42 108.758C69.11 109.518 69.45 110.218 69.45 111.068C69.45 112.558 68.12 113.468 66.14 113.468C64.79 113.468 63.69 112.868 63.69 111.238C63.69 110.168 64.16 107.178 64.27 105.798C64.3 105.448 64.3 105.268 64.28 105.088L65.17 105.138ZM61.97 106.468C62.81 106.738 64.01 106.868 64.9 106.868C65.66 106.868 66.35 106.828 66.94 106.738L66.92 107.498C66.28 107.558 65.69 107.588 64.88 107.588C64 107.588 62.8 107.438 61.92 107.198L61.97 106.468ZM61.72 108.958C62.69 109.298 63.86 109.388 64.78 109.388C65.47 109.388 66.16 109.368 66.86 109.268L66.85 110.028C66.18 110.098 65.56 110.118 64.89 110.118C63.8 110.118 62.59 109.998 61.68 109.718L61.72 108.958ZM77.88 106.178C77.75 107.218 77.55 108.388 77.24 109.458C76.63 111.508 75.83 112.568 74.91 112.568C74.01 112.568 73.12 111.548 73.12 109.888C73.12 107.718 75.05 105.828 77.5 105.828C79.84 105.828 81.33 107.478 81.33 109.508C81.33 111.598 79.95 112.998 77.57 113.308L77.11 112.568C77.43 112.538 77.73 112.498 77.97 112.448C79.25 112.158 80.51 111.198 80.51 109.468C80.51 107.868 79.4 106.548 77.48 106.548C75.28 106.548 73.91 108.358 73.91 109.828C73.91 111.088 74.48 111.648 74.93 111.648C75.4 111.648 75.94 110.968 76.45 109.278C76.74 108.328 76.95 107.198 77.05 106.158L77.88 106.178Z" fill="#999999"/>
</svg>
