<svg width="28" height="28" viewBox="0 0 28 28" fill="none" xmlns="http://www.w3.org/2000/svg">
<path d="M14 15.1667C16.7953 15.1667 19.3375 15.9763 21.2077 17.1173C22.141 17.6867 22.939 18.3587 23.5153 19.089C24.0823 19.8065 24.5 20.6652 24.5 21.5833C24.5 22.5692 24.0205 23.3462 23.3298 23.9003C22.6765 24.4253 21.8143 24.773 20.8985 25.0157C19.0575 25.5022 16.6005 25.6667 14 25.6667C11.3995 25.6667 8.9425 25.5033 7.1015 25.0157C6.18567 24.773 5.3235 24.4253 4.67017 23.9003C3.97833 23.345 3.5 22.5692 3.5 21.5833C3.5 20.6652 3.91767 19.8065 4.48467 19.0878C5.061 18.3587 5.85783 17.6878 6.79233 17.1162C8.6625 15.9775 11.2058 15.1667 14 15.1667ZM14 2.33333C15.5471 2.33333 17.0308 2.94791 18.1248 4.04188C19.2188 5.13584 19.8333 6.61957 19.8333 8.16667C19.8333 9.71376 19.2188 11.1975 18.1248 12.2915C17.0308 13.3854 15.5471 14 14 14C12.4529 14 10.9692 13.3854 9.87521 12.2915C8.78125 11.1975 8.16667 9.71376 8.16667 8.16667C8.16667 6.61957 8.78125 5.13584 9.87521 4.04188C10.9692 2.94791 12.4529 2.33333 14 2.33333Z" fill="white"/>
</svg>
